# xmcd
#
# Track frame offsets:
#	150
#	17627
#	41077
#	58822
#	73587
#	95477
#	117190
#	138285
#	158175
#	177117
#	195987
#	213012
#	231907
#	255612
#	277000
#	293760
#
# Disc length: 4203 seconds
#
# Revision: 1
# Processed by: cddbd v1.5.1PL0 Copyright (c) Steve Scherf et al.
# Submitted via: CDex 1.50Beta5
#
DISCID=e3106910
DTITLE=北原ミレイ - 北原ミレイ 全曲集 <くらくら>
DYEAR=2000
DGENRE=Pop
TTITLE0=くらくら
TTITLE1=夢うた
TTITLE2=石狩挽歌
TTITLE3=棄てるものがあるうちはいい
TTITLE4=愛したいの
TTITLE5=新宿海峡
TTITLE6=番屋
TTITLE7=今さら
TTITLE8=北の居酒屋
TTITLE9=ざんげの値打ちもない
TTITLE10=釜山港へ帰れ
TTITLE11=風の盆
TTITLE12=遠き故郷へ
TTITLE13=白い花
TTITLE14=漁歌
TTITLE15=終りなき旅路
EXTD=
EXTT0=
EXTT1=
EXTT2=
EXTT3=
EXTT4=
EXTT5=
EXTT6=
EXTT7=
EXTT8=
EXTT9=
EXTT10=
EXTT11=
EXTT12=
EXTT13=
EXTT14=
EXTT15=
PLAYORDER=
